<?xml version="1.0" standalone="no"?>
<!DOCTYPE svg PUBLIC "-//W3C//DTD SVG 20010904//EN"
 "http://www.w3.org/TR/2001/REC-SVG-20010904/DTD/svg10.dtd">
<svg version="1.0" xmlns="http://www.w3.org/2000/svg"
 width="300.000000pt" height="100.000000pt" viewBox="0 0 300.000000 100.000000"
 preserveAspectRatio="xMidYMid meet">

<g transform="translate(-22.500000,85.000000) scale(0.09000,-0.09000)"
fill="#000000" stroke="none">
<path d="M0 500 l0 -500 1500 0 1500 0 0 500 0 500 -722 -1 c-599 0 -716 -3
-683 -13 156 -50 267 -178 310 -357 8 -35 15 -79 15 -96 l0 -33 -420 0 -420 0
0 33 c0 17 7 61 15 96 43 179 154 307 310 357 33 10 -84 13 -682 13 l-723 1 0
-500z"/>
</g>
</svg>
