<?xml version="1.0" standalone="no"?>
<!DOCTYPE svg PUBLIC "-//W3C//DTD SVG 20010904//EN"
 "http://www.w3.org/TR/2001/REC-SVG-20010904/DTD/svg10.dtd">
<svg version="1.0" xmlns="http://www.w3.org/2000/svg"
 width="485.000000pt" height="122.000000pt" viewBox="0 0 485.000000 122.000000"
 preserveAspectRatio="xMidYMid meet">

<g transform="translate(0.000000,122.000000) scale(0.100000,-0.100000)"
fill="#000000" stroke="none">
<path d="M1740 1105 c0 -98 1 -105 20 -105 18 0 20 7 20 70 0 39 4 70 10 70 5
0 23 -18 41 -39 l31 -40 37 44 c20 24 39 44 44 44 4 1 7 -33 7 -74 0 -60 3
-75 15 -75 12 0 15 18 15 105 0 102 -1 105 -22 105 -15 0 -36 -16 -59 -44
l-36 -45 -37 45 c-25 30 -45 44 -61 44 -25 0 -25 0 -25 -105z"/>
<path d="M2020 1105 c0 -98 1 -105 20 -105 19 0 20 7 20 105 0 98 -1 105 -20
105 -19 0 -20 -7 -20 -105z"/>
<path d="M2097 1203 c-4 -3 -7 -28 -7 -54 0 -56 5 -59 101 -59 67 0 69 -1 69
-25 0 -24 -2 -25 -70 -25 -40 0 -70 4 -70 10 0 6 -7 10 -15 10 -18 0 -20 -31
-3 -48 7 -7 43 -12 93 -12 50 0 86 5 93 12 7 7 12 31 12 55 0 54 -16 63 -110
63 -68 0 -71 1 -68 23 3 20 9 22 71 25 42 2 67 -1 67 -8 0 -5 9 -10 20 -10 21
0 24 8 14 34 -5 13 -23 16 -98 16 -51 0 -96 -3 -99 -7z"/>
<path d="M2336 1194 c-10 -26 -7 -79 6 -92 7 -7 43 -12 90 -12 77 0 78 0 78
-25 0 -24 -2 -25 -70 -25 -40 0 -70 4 -70 10 0 6 -9 10 -20 10 -23 0 -27 -29
-8 -48 12 -12 153 -17 182 -6 24 9 31 69 12 99 -15 23 -23 25 -91 25 -73 0
-75 1 -75 25 0 24 2 25 70 25 40 0 70 -4 70 -10 0 -5 9 -10 20 -10 23 0 24 4
10 31 -9 17 -22 19 -104 19 -76 0 -95 -3 -100 -16z"/>
<path d="M2580 1105 c0 -98 1 -105 20 -105 19 0 20 7 20 105 0 98 -1 105 -20
105 -19 0 -20 -7 -20 -105z"/>
<path d="M2657 1204 c-12 -13 -8 -179 5 -192 18 -18 172 -16 187 2 8 9 11 46
9 103 l-3 88 -95 3 c-53 1 -99 0 -103 -4z m163 -94 l0 -70 -70 0 -70 0 0 63
c0 35 3 67 7 70 3 4 35 7 70 7 l63 0 0 -70z"/>
<path d="M2900 1105 c0 -98 1 -105 20 -105 17 0 19 8 22 75 l3 76 63 -76 c39
-47 70 -75 82 -75 19 0 20 7 20 105 0 98 -1 105 -20 105 -17 0 -19 -8 -22 -72
l-3 -73 -59 73 c-43 51 -67 72 -83 72 -23 0 -23 -2 -23 -105z"/>
<path d="M10 1115 l0 -35 325 0 c179 0 476 0 660 0 184 0 378 0 430 0 l95 0 0
35 0 35 -755 0 -755 0 0 -35z"/>
<path d="M3380 1115 l0 -35 330 0 330 0 0 35 0 35 -330 0 -330 0 0 -35z"/>
<path d="M4130 1115 l0 -35 360 0 360 0 0 35 0 35 -360 0 -360 0 0 -35z"/>
<path d="M10 580 l0 -360 65 0 65 0 0 150 0 150 235 0 235 0 0 -150 0 -150 65
0 65 0 0 360 0 360 -65 0 -65 0 0 -150 0 -150 -235 0 -235 0 0 150 0 150 -65
0 -65 0 0 -360z"/>
<path d="M860 580 l0 -360 330 0 330 0 0 65 0 65 -265 0 -265 0 0 85 0 85 215
0 215 0 0 60 0 60 -215 0 -215 0 0 85 0 85 265 0 265 0 0 65 0 65 -330 0 -330
0 0 -360z"/>
<path d="M1630 580 l0 -360 65 0 65 0 0 125 0 125 115 0 115 0 106 -125 106
-125 69 0 c63 0 69 2 69 20 0 11 -39 66 -87 123 l-87 102 45 5 c57 8 85 24
109 63 17 28 20 51 20 171 0 122 -2 143 -20 171 -39 62 -54 65 -389 65 l-301
0 0 -360z m580 125 l0 -105 -225 0 -225 0 0 105 0 105 225 0 225 0 0 -105z"/>
<path d="M2450 580 l0 -360 65 0 65 0 2 260 3 261 130 -155 c72 -86 133 -156
136 -156 4 0 65 70 135 155 71 85 132 154 137 155 4 0 7 -117 7 -260 l0 -260
65 0 65 0 0 360 0 360 -74 0 -73 0 -114 -137 c-63 -75 -121 -146 -130 -157
-15 -18 -21 -12 -148 137 l-132 157 -70 0 -69 0 0 -360z"/>
<path d="M3380 580 l0 -360 330 0 330 0 0 65 0 65 -265 0 -265 0 0 85 0 85
215 0 215 0 0 60 0 60 -215 0 -215 0 0 85 0 85 265 0 265 0 0 65 0 65 -330 0
-330 0 0 -360z"/>
<path d="M4211 922 c-63 -32 -76 -60 -79 -182 -3 -87 0 -115 14 -145 32 -68
39 -69 319 -75 l250 -5 3 -82 3 -83 -231 0 -230 0 0 30 0 30 -66 0 -67 0 5
-51 c6 -59 31 -97 79 -121 30 -16 66 -18 282 -18 267 0 277 2 327 55 23 25 25
35 28 145 4 131 -5 162 -57 199 -27 19 -45 21 -277 23 l-249 3 -3 83 -3 82
231 0 230 0 0 -30 0 -30 66 0 66 0 -4 55 c-3 40 -11 62 -29 81 -49 52 -59 54
-326 54 -216 0 -252 -2 -282 -18z"/>
<path d="M10 45 l0 -35 328 -1 c370 -1 4277 0 4420 0 l92 1 0 35 0 35 -2420 0
-2420 0 0 -35z"/>
</g>
</svg>
